<?xml version="1.0" encoding="UTF-8"?>
<svg id="Layer_1" data-name="Layer 1" xmlns="http://www.w3.org/2000/svg" viewBox="0 0 1800 401.34">
  <defs>
    <style>
      .cls-1 {
        fill: #fff;
        stroke-width: 0px;
      }
    </style>
  </defs>
  <g>
    <path class="cls-1" d="M1139.23,169.34c8.14-.46,15.19-.83,22.23-1.4,8.9-.72,16.73.13,17.81,13.38,26.27-19.1,50.44-19.19,71.69,4.7,1.98-.97,3.23-1.26,4.03-2.03,19.41-18.66,41.52-20.68,65.1-9.72,22.58,10.49,31.22,30.55,31.84,53.67.89,33.71-.16,67.46-.18,101.19,0,7.93-3.26,11.43-11.3,11.19-10.19-.3-20.42-.45-30.6.07-9.56.49-13.31-3.07-13.13-12.89.46-25.89.15-51.79.13-77.68,0-3.53.17-7.09-.23-10.58-1.07-9.24-5.8-15.9-15.56-16.05-9.97-.15-14.94,6.86-15.55,15.9-.85,12.5-.49,25.09-.55,37.65-.07,17.26-.19,34.53,0,51.79.08,7.88-3.27,11.59-11.22,11.48-10.59-.14-21.19-.24-31.78.08-8,.24-11-2.65-10.74-11.09.83-26.66.94-53.34-.7-79.99-.26-4.3-.28-8.66-1.04-12.88-1.34-7.42-6.37-11.85-13.53-12.86-7.63-1.08-12.48,3.31-15.37,10.16-2.19,5.19-2.49,10.6-2.48,16.14.06,26.29-.24,52.58.17,78.86.13,8.66-2.95,12.14-11.55,11.87-10.97-.35-21.97-.28-32.95,0-7.76.2-11.44-2.54-11.41-10.88.18-49.83.3-99.66-.15-149.48-.12-13.22,8.53-10.23,17.01-10.6Z"/>
    <path class="cls-1" d="M1382.18,330.75c-19.15-15.15-26.68-34.36-24.07-57.54,1.71-15.24,10.43-26.08,23.48-33.23,24.19-13.26,49.67-18.6,77.21-10.25-12.37-18.13-31.78-19.03-67.38-2.56-6.54-10.99-13.43-22.14-19.84-33.56-2.42-4.3,1.45-6.18,4.59-7.95,27.86-15.7,57.2-22.98,89.23-16.46,31.44,6.4,52.98,30.35,53.73,62.43.75,32.13-.09,64.3.05,96.45.04,8.44-3.32,12.23-11.86,12-9.79-.26-19.62-.35-29.4.18-9.5.52-15.72-1.77-13.5-15.01-27.03,20.97-53.84,22.73-82.24,5.49M1461.68,263.89c-4.96-15.63-22.28-20.73-38.04-11.22-14.67,8.85-14.36,27.75.59,36.16,15.96,8.97,35.06-2.77,37.46-24.94Z"/>
    <path class="cls-1" d="M1699.72,341.04c-47.5-9.02-79.55-50.78-72.71-97.91,6.39-44.04,39.79-77.6,88.52-75.88,51.21,1.81,89.37,46.69,83.97,98.02-.82,7.83-4.66,9.49-11.59,9.57-30.98.36-61.95,1.08-92.92,1.71-2.66.05-5.32.4-8.12.62,4.43,12.47,21.05,21.02,35.35,18.44,8.55-1.54,16.84-4.08,23.87-9.4,5.14-3.88,8.72-3.05,12.89,1.8,7.62,8.88,15.9,17.2,25.26,27.2-24.66,21.26-51.94,30.14-84.53,25.84M1684.89,228.42c-1.2,2.62-4.63,4.46-2.49,9.16,19.63-2.12,39.64-.27,60.22-.48-10.27-24.07-34.12-27.64-57.73-8.68Z"/>
    <path class="cls-1" d="M1018.62,341.89c-43.66-9.81-72.74-41.3-74.11-83.76-1.27-39.12,20.7-77.74,67.23-89.05,38.24-9.29,81.08,12.56,96.81,49.31,5.94,13.88,8.09,28.35,8.45,43.47.27,11.17-4.25,14.29-14.5,14.23-29.8-.17-59.61.23-89.42.44-2.72.02-5.43.27-8.29.42,5.1,12.48,21.26,21.26,35.16,19,6.94-1.13,14.7-1.84,19.83-6.72,10.11-9.63,16.09-4.33,22.51,4.15,5.4,7.12,11.49,13.72,18.12,21.54-22.78,23.53-50.08,30.22-81.79,26.98M1007.62,225.05c-3.03,3.29-7.11,5.99-6.71,11.62h59.42c-8.76-21.99-29.29-26.69-52.71-11.62Z"/>
    <path class="cls-1" d="M870.02,290.96c-19.15,35.94-53.35,55.61-87.35,50.85-41.56-5.82-72.46-33.31-80.43-71.57-9.71-46.63,28.38-97.31,77.24-102.78,51.75-5.79,95.37,30.26,97.32,80.27.57,14.59.61,29-6.77,43.22M776.8,222.35c-1.41.68-2.87,1.28-4.22,2.06-17.56,10.26-22.59,31.3-11.69,48.78,10.45,16.76,31.12,21.05,48.25,10,16.62-10.72,21.09-31.94,9.86-48.3-10.02-14.6-24.17-17.42-42.2-12.55Z"/>
    <path class="cls-1" d="M695.9,192.99c-7.26,9.25-14.59,17.46-21.08,26.29-4.25,5.78-8.06,6.04-13.7,2.27-9-6.02-19.36-8.51-29.97-9.54-5.92-.58-13.2-.16-14.59,6.71-1.4,6.87,5.63,8.53,10.85,9.91,11.73,3.11,23.53,6.05,35.38,8.65,18.13,3.98,33.27,12.42,36.48,31.95,3.66,22.31-.83,43.36-19.92,58.16-15.53,12.03-34.2,16.04-53.29,15.03-23.44-1.24-45.29-8.43-64.69-22.38-6.28-4.52-7.66-8.47-1.62-13.87.29-.26.61-.52.82-.84,12.31-19.17,26.15-30,49.05-13.38,7.66,5.56,18.62,5.46,28.52,2.43,3.94-1.2,7.84-2.57,8.15-7.22.32-4.79-3.47-6.68-7.41-7.79-13.94-3.95-27.84-8.05-41.88-11.61-19.99-5.06-31.94-17.72-35.95-37.65-3.78-18.78,3.83-34,17.28-46.23,31.85-28.96,92.55-17.34,117.42,6.1.45.42.31,1.47.15,3Z"/>
    <path class="cls-1" d="M1543.75,290.49c-3.28-20.51-1.24-40.14-1.37-59.71-.06-8.5-1.93-13.76-11.82-12.58-7.84.94-10.34-3.35-9.94-10.61.38-7.04.63-14.13.24-21.16-.6-10.92.41-19.86,14.93-18.88,4.15.28,6.08-2.99,6.22-7.06.05-1.57.09-3.14.12-4.7.45-26.88.39-27.1,25.9-34.64,8.9-2.63,17.19-7.45,29.28-8.51,0,13.67-.02,26.72,0,39.77.03,15.53.15,15.63,15.8,15.69q20.06.08,17.76,20.74c-.17,1.56-.33,3.12-.41,4.68-1.33,23.31-1.31,23.51-24.6,26.12-6.57.73-8.72,3.69-8.62,9.86.23,13.33-.15,26.67.23,39.99.42,14.51,6.86,21.38,21.45,22.39,6.36.44,9.15,2.58,9.37,9.01.26,7.81,1.62,15.59,1.79,23.39.34,16.05-.26,16.5-15.88,17.73-35.34,2.78-63.27-17.28-70.45-51.51Z"/>
    <path class="cls-1" d="M884.59,134.88c.03-15.7.53-30.24-.07-44.74-.42-10.09,3.91-13.12,13.28-12.64,9.78.5,19.65.52,29.42-.12,9.64-.63,13.09,2.91,13,12.72-.4,46.7-.23,93.41-.25,140.11-.01,31.79-.36,63.58.21,95.36.2,11.4-3.95,15.58-15.1,14.76-8.98-.66-18.08-.65-27.06,0-10.3.74-13.63-3.25-13.57-13.54.35-63.58.15-127.16.13-191.92Z"/>
  </g>
  <g>
    <path class="cls-1" d="M359.94,226.43c16.54-34.57,32.94-68.82,49.27-103.11,2.88-6.06,5.57-12.21,8.19-18.39,4.4-10.38,1.28-19.24-8.59-24.8-5.22-2.94-10.76-5.1-16.59-6.39-1.96-.43-3.37-1.25-4.47-2.8-5.14-7.2-12.26-11.9-20.17-15.32-15.39-6.65-30.72-13.47-46.63-18.83-7.67-2.58-11.01-.43-13.18,7.55-4.02,14.78-8.9,29.2-19.92,40.6-3.73,3.86-7.92,7.14-12.2,10.34-1.2.9-2.35,1.29-3.73.3-9.72-7.01-20.51-7.92-31.87-5.54-.42.09-.89-.09-1.82-.2-1.12-6.44-.62-12.91.95-19.21,4.69-18.81,15.69-33.62,30.45-45.64,18.11-14.75,38.91-22.65,62.34-24.54,51.72-4.16,98.32,24.58,120.04,69.22,13.31,27.35,17.25,56.15,12.73,86.31-5.65,37.66-23.86,67.91-52.26,92.75-31.11,27.21-61.81,54.9-92.8,82.26-23.09,20.39-46.33,40.62-69.57,60.86-3.6,3.14-6.65,7.04-11.91,9.49v-39.7c13.77,5.87,23.87-.99,33.41-9.11,26.37-22.47,48.69-48.24,64.91-79.11,8.09-15.4,15.88-30.94,23.4-46.99M428.96,161.67c2.36-.61,3.42-2.67,4.98-4.12-1.96-1.76-3.72-3.33-5.58-5-1.17,1.27-2.73,2.95-4.33,4.69.88.78,1.57,1.35,2.21,1.97.75.73,1.44,1.52,2.73,2.45Z"/>
    <path class="cls-1" d="M24.02,214.78C8.65,190.48.35,164.27.01,135.86-.55,87.96,18.39,49.3,57.16,21.13,76.63,6.99,99.16.1,123.26,0c29.37-.12,56.01,8.32,78.1,28.36,14.01,12.71,23.79,28.12,27.29,47.03.86,4.65.57,9.36.23,14.13-3.29,1-6.21-.41-9.18-.56-8.67-.44-16.73,1.23-23.94,6.1-2.38,1.61-3.76,1.09-5.92-.57-16.13-12.46-24.67-29.52-29.96-48.59-2.81-10.11-6.07-11.93-15.84-8.17-13.38,5.15-26.76,10.29-40.02,15.73-9.96,4.08-19.21,9.36-25.91,18.16-1.01,1.33-2.44,1.64-3.97,1.99-5.52,1.28-10.86,3.1-15.75,6-11.6,6.88-14.42,15.7-8.65,27.9,7.44,15.71,15.11,31.32,22.69,46.97,17.16,35.41,34.08,70.95,51.57,106.2,17.87,36.01,42.66,66.7,73.24,92.78,9.06,7.73,18.59,12.89,31.44,8.37v38.71c-2.11.03-3.14-1.71-4.43-2.84-41.56-36.38-83.06-72.85-124.65-109.2-18.38-16.06-37.59-31.17-55.2-48.12-7.87-7.58-14.51-16.06-20.39-25.61M32.48,155.92c-.03,1.99.6,2.7,4.92,5.4,1.7-1.34,3.42-2.7,4.71-4.87-2.27-1.3-3.37-3.37-4.88-4.85-1.49,1.4-2.9,2.73-4.76,4.32Z"/>
    <path class="cls-1" d="M219.09,228.48c-5.09,1.77-9.84,3.43-14.59,5.09-2.73.95-4.86,2.6-3.71,5.73,1.12,3.06,3.92,2.4,6.28,1.7,5.55-1.65,11.05-3.47,16.58-5.2,1.56-.49,3.11-1.35,5.3-.16,0,7.03.26,14.32-.11,21.58-.18,3.61-5.3,5.83-8.31,3.91-3.25-2.07-6.31-2.44-9.1.45-1.87,1.94-3.11,4.3-1.21,6.97,2.35,3.31,5.49,4.68,9.54,3.63,2.76-.72,5.14-2.72,8.05-2.55,1.48.86,1.23,2.19,1.24,3.35.03,6.71-.07,13.43.02,20.14.04,2.9-.95,4.34-3.98,5-7.2,1.58-13.98,4.36-19.85,8.95-2.49,1.95-4.25,1.49-6.11-.91-11.12-14.4-21.09-29.57-29.28-45.81-22.86-45.36-42.36-92.3-64.58-137.96-6.54-13.44-12.75-27.04-19.33-40.45-1.61-3.28-1.28-5.75,1.12-8.23.64-.66,1.14-1.45,1.83-2.05,9.66-8.37,21.76-11.86,32.89-17.02,1.69,1.8,1.05,3.35.71,4.74-6.7,27.75,10.8,54.56,34.26,65,12.15,5.41,24.98,7.7,37.9,9.91,7.43,1.27,14.28,3.86,20.82,7.8,11.49,6.92,16.25,16.45,12.91,29.99-3.31,1.37-6.83-.36-10.29-.97-7.94-1.41-15.8-3.25-23.69-4.92-2.53-.54-5.14-.81-6.05,2.32-1.02,3.5,1.67,4.52,4.26,5.21,10.31,2.76,20.73,4.96,31.31,6.38,1.65.22,3.49.1,4.57,1.65,1.04,1.49.93,3.26.24,4.83-.73,1.64-2.26,1.04-3.62.9-9.69-1-19.38-1.97-29.08-2.94-2.96-.29-5.47.77-5.81,3.81-.37,3.3,2.23,4.26,5.09,4.52,9.54.86,19.08,1.75,28.61,2.67,1.15.11,2.5.01,3.32,1.73-2.7,2.31-6.26,2.57-9.47,3.45-6.46,1.78-13.02,3.19-19.51,4.85-2.76.71-5.72,1.81-4.7,5.44.99,3.51,3.91,3.12,6.78,2.34,7.79-2.12,15.61-4.15,23.41-6.23,1.47-.39,2.92-.89,4.69-.38,1.4,3.7.88,6.22-3.68,7.24-5.05,1.13-10.01,2.64-14.99,4.09-1.44.42-2.93.97-4.15,1.81-1.53,1.06-2.9,2.55-1.64,4.62,1.02,1.68,2.48,2.52,4.65,1.91,5.13-1.45,10.28-2.83,15.47-4.06,1.45-.34,3.64-1.48,4.26.93.49,1.89-1.58,2.36-2.93,2.92-1.97.82-4.01,1.45-6.37,2.28M150.54,191.19c.43.97.66,2.12,1.33,2.88,2.75,3.15,6.04,5.2,10.44,3.86,3.76-1.14,6.66-3.3,6.8-7.59.14-4.57-2.02-7.87-6.3-9.64-6.54-2.7-12.22,1.81-12.26,10.49M188.83,256.41c3.34-2.79,5.13-6.06,2.86-10.35-2.15-4.06-6.69-6.3-10.6-5.4-4.77,1.1-8.05,6.35-6.74,10.79,1.54,5.21,8.04,7.71,14.48,4.96M178.87,223.95c.15-1.51.59-3.05.39-4.51-.49-3.74-2.47-6.47-6.13-7.82-3.44-1.27-6.3.05-8.85,2.16-2.72,2.26-2.69,5.47-1.88,8.45,1.85,6.86,10.39,8.04,16.46,1.72M194.71,156.56c3.78,1.6,7.12.89,9.93-2.04,1.82-1.89,2.42-4.19,1.37-6.69-1.33-3.18-3.7-5.49-7.18-5.32-3.47.17-6.3,2.16-7.67,5.56-1.41,3.5-.07,6.16,3.55,8.49Z"/>
    <path class="cls-1" d="M328.63,203.23c-11.99,23.87-22.31,48.22-36.76,70.42-7.49,11.51-15.55,22.61-23.99,33.46-2.34,3-4.08,3.4-6.91.58-5.01-5-11.43-7.52-18.2-9.02-3.63-.8-4.99-2.6-4.88-6.33.23-7.41.07-14.83.07-22.06,3.28-1.03,5.45.32,7.7,1.15,2.17.8,4.34,1.54,6.68,1.14,3.44-.58,5.33-2.92,6.08-6.09.68-2.91-1.02-4.94-3.27-6.51-2.62-1.83-5.29-1.77-7.41.63-2.13,2.41-4.01,1.02-6.12.23-2.16-.81-3.77-1.82-3.75-4.49.05-6.26-.03-12.51-.04-18.77,0-2.96,1.35-3.73,4.11-2.76,5.61,1.97,11.26,3.81,16.9,5.7,1.01.34,2.02.76,3.06.92,2.63.42,5.64.83,6.39-2.56.68-3.09-1.76-4.7-4.37-5.5-5.82-1.78-11.7-3.39-17.55-5.07-1.46-.42-2.96-.76-4.38-1.31-1.64-.64-4.07-1.01-3.52-3.42.63-2.74,3.02-1.39,4.59-1.07,5.52,1.14,10.99,2.47,16.47,3.81,2.44.59,4.77.75,5.62-2.15.83-2.85-1.14-4.3-3.5-4.97-6.59-1.88-13.17-3.8-19.85-5.29-3.37-.75-4.46-2.65-3.8-5.52.76-3.33,3.38-1.66,5.2-1.23,8.15,1.95,16.28,3.96,24.36,6.16,2.78.76,5.52,1.19,6.55-1.92,1.1-3.33-1.43-5.06-4.31-5.81-8.55-2.23-17.12-4.35-25.7-6.46-1.46-.36-3.05-.34-4.44-2.64,5.57-.59,10.76-1.16,15.96-1.68,4.69-.47,9.4-.81,14.08-1.33,3.17-.36,7.3-.52,6.89-4.86-.38-4.02-4.36-3.57-7.38-3.34-8.65.65-17.3,1.43-25.94,2.19-2.28.2-4.8,1-5.3-2.44-.47-3.22,1.52-4.34,4.26-4.69,10.28-1.31,20.36-3.71,30.48-5.84,3.19-.67,7.66-1.41,6.48-5.84-1.09-4.12-5.14-2.61-8.23-1.79-9.28,2.48-18.79,3.83-28.2,5.65-3.54.69-4.57-.37-5.09-4.07-2.34-16.56,9.1-23.3,20.79-29.66,8.72-4.74,18.62-5.49,28.26-6.93,1.77-.26,3.13.38,3.52,2.12,4.17,18.71,24.11,19.13,37.77,13.73,10.02-3.97,17.13-11.56,23.52-19.81,5.05-6.5,9.57-13.4,14.47-20.02,1.46-1.97,3.15-5.4,5.84-3.95,3.29,1.77.27,4.62-.69,6.71-14.05,30.8-28.22,61.54-42.5,92.62M311.21,173.73c-6.69.05-12.12,4.82-12.67,11.14-.5,5.76,3.42,10.86,9.06,11.81,6.92,1.15,12.2-2.11,13.93-8.62,1.63-6.1-2.13-11.6-10.33-14.33M270.74,142.62c-6.59-.31-10.83,3.96-9.01,9.12,1.34,3.81,4.21,5.61,8.13,5.3,3.75-.3,6.23-2.61,6.91-6.27.78-4.21-1.87-6.44-6.03-8.15Z"/>
    <path class="cls-1" d="M94.5,118.79c21.48,43.88,40.35,88.6,62.02,132,1.77,3.55,3.55,7.08,5.36,10.61.91,1.78,1.54,3.64-.8,4.63-6.87,2.91-12.35,7.69-17.29,13.03-2.85-1.4-3.57-3.86-4.68-5.93-19.12-35.64-35.82-72.47-53.4-108.87-8.76-18.13-17.41-36.31-26.21-54.42-7.19-14.8-5.78-19.18,9.26-25.69,8.31-3.6,6.69-4.79,11.19,4.18,4.99,9.95,9.62,20.09,14.54,30.46Z"/>
    <path class="cls-1" d="M283.27,113.16c-4.44-7.53-2.12-12.23,4.44-17.05,11.77-8.65,18.74-21.01,23.42-34.7,1.91-5.58,3.91-11.14,6.04-17.18,4.94,1.93,9.61,3.69,14.23,5.58,2.01.82,2.72,2.78,3.47,4.62,10.7,26.45-1.69,47.65-19.27,59.29-8.19,5.43-17.42,7.77-26.94,9.44-3.28.57-4.97.05-4.72-3.73.13-1.95-.37-3.93-.66-6.26Z"/>
    <path class="cls-1" d="M307.07,306.24c-12.32,15.26-25.68,29.04-40.56,41.3-5.83,4.8-12.15,8.8-20.28,8.06-5.48-.5-10.44-9.23-7.91-14.06.32-.61.99-1.16,1.63-1.48,12.79-6.34,21.97-16.8,30.97-27.39,10.58-12.45,20.19-25.65,29.08-39.35,2.02-3.11,3.97-3.74,7.03-1.73,4.47,2.93,8.77,6.06,12.74,9.67,2.11,1.92,2.2,3.72.6,5.97-4.41,6.22-8.74,12.5-13.3,19.01Z"/>
    <path class="cls-1" d="M134.22,91.62c-5.96-12.6-5.7-25.05-1.24-37.64.76-2.14,1.82-3.78,4.09-4.54,4.31-1.44,8.58-2.99,13.27-4.64,1.28,3.46,2.53,6.5,3.53,9.63,5.88,18.43,14.88,34.74,31.12,46.18,1.36.96,2.31,2.05,1.62,3.82-2.34,6-3.21,12.31-3.64,19.43-21.01-3.92-38.35-12.42-48.75-32.25Z"/>
    <path class="cls-1" d="M170.08,315.11c-7.96-8.42-14.14-17.84-21.11-26.63-2.54-3.21-1.22-5.19,1.41-7.1.85-.62,1.88-1.02,2.73-1.64,4.2-3.07,8-1.98,9.78,2.94,2.31,6.38,7.07,10.82,12.03,15.01,1.03.87,2.18,1.69,2.93,2.73,5.65,7.85,12.82,14.22,19.86,20.72.56.52,1,1.35,1.65,1.55,10.67,3.28,16.95,13.34,27.15,17.49,4.01,1.63,2.45,12.66-1.84,14.77-4.81,2.37-9.41,1.65-13.86-1.18-10.1-6.42-18.43-14.86-26.66-23.39-4.73-4.9-9.26-9.99-14.06-15.26Z"/>
    <path class="cls-1" d="M398.67,128.62c-21.43,44.55-42.68,88.81-64.02,133.03-2.84,5.88-6.01,11.61-9.96,17.06-3.76-1.47-5.14-3.34-3.07-7.26,12.31-23.34,23.44-47.27,34.8-71.09,11.16-23.4,22.14-46.89,33.21-70.33.98-2.07,2.02-4.1,3.1-6.12,2.89-5.41,3.64-5.52,8.92-1.11-.92,1.79-1.88,3.65-2.99,5.81Z"/>
    <path class="cls-1" d="M237.84,117.21c0-5.19.04-9.91,0-14.64-.02-2.21.66-3.62,3.02-4.4,16.03-5.28,32.27,3.96,35.63,20.4,1.16,5.67.58,6.83-4.94,7.71-12.77,2.04-23.66,7.56-32.45,17.21-.42-.1-.84-.19-1.26-.29,0-8.51,0-17.02,0-25.99Z"/>
    <path class="cls-1" d="M190.99,121.73c1.53-22.88,18.91-26.5,34.81-23.69,1.56.28,2.78,1,3.09,2.86.39,2.32.03,37.71-.58,40.06-2.13.26-3.17-1.56-4.5-2.6-7.94-6.21-16.68-10.45-26.79-11.83-2.55-.35-6.3.12-6.04-4.82Z"/>
    <path class="cls-1" d="M326.4,241.26c-4.29,8.62-8.4,16.95-12.58,25.25-1.03,2.04-1.98,4.3-5.12,2.68-2.98-1.54-2.07-3.4-.98-5.65,9.82-20.28,19.63-40.56,29.32-60.9,7.4-15.54,14.64-31.15,21.95-46.73.45-.97.98-1.9,1.37-2.89,1.04-2.65,2.68-3.47,5.36-2.12,2.6,1.31,1.79,2.95.88,4.91-13.15,28.48-26.06,57.08-40.21,85.47Z"/>
    <path class="cls-1" d="M239.38,325.91c5.82-4.99,11.39-9.75,16.96-14.49,1.64-1.4,3.34-3.14,5.5-.97,2.17,2.18-.06,3.7-1.25,5-6.35,6.96-13.72,12.71-21.65,18.48-1.49-3.15-1.6-5.5.43-8.03Z"/>
    <path class="cls-1" d="M214.97,316.02c3.53,2.68,6.66,5.4,10.13,7.56,3.88,2.41,4.8,5.52,3.38,10.33-8.77-6.03-16.89-12.21-23.49-20.22-.78-.95-.87-1.92.14-2.8,1.2-1.04,2.41-1.18,3.68-.1,1.97,1.68,3.95,3.35,6.17,5.23Z"/>
    <path class="cls-1" d="M217.76,267.01c-2.01.84-3.59.85-4.4-1.15-.38-.93.13-1.77.89-2.35,1.22-.93,2.54-.95,3.74-.04,1.37,1.04,1.37,2.21-.23,3.54Z"/>
    <path class="cls-1" d="M249.86,266.57c-1.31-.95-2.2-1.8-.85-3.02.97-.88,2.09-1.12,3.28-.42.99.58,1.64,1.46,1.2,2.59-.63,1.6-1.93,1.64-3.63.85Z"/>
    <path class="cls-1" d="M163.62,191.93c-2.28,2.27-4.53,2.45-6.72.61-1.67-1.41-2.12-3.36-1.23-5.37.92-2.08,2.83-2.67,4.92-2.59,3.42.14,4.67,2.94,3.03,7.35Z"/>
    <path class="cls-1" d="M180.92,253.12c-2.48-2.44-2.51-4.92-.7-7.2,1.35-1.7,3.35-2.03,5.36-.89,2.2,1.25,2.74,3.34,2.13,5.52-.95,3.4-3.43,3.91-6.8,2.57Z"/>
    <path class="cls-1" d="M170.25,215.18c1.2.27,2.18.39,2.83.92,2.32,1.89,2.87,4.37.99,6.7-1.79,2.21-4.25,2.29-6.28.18-2.08-2.16-2.1-4.58.11-6.76.5-.5,1.31-.68,2.35-1.05Z"/>
    <path class="cls-1" d="M201.46,153.27c-2.75,1.33-4.72.68-6.05-1.58-.84-1.43-.48-2.93.53-4.19,1.21-1.51,3.01-1.72,4.49-.96,2.94,1.5,3.76,3.76,1.03,6.73Z"/>
    <path class="cls-1" d="M273.37,150.19c-.27,1.42-.89,2.25-1.81,2.88-2.14,1.46-4.14,1.08-5.7-.75-1.31-1.53-1.44-3.5-.06-5.03,1.66-1.84,3.77-1.75,5.81-.5,1.12.69,1.57,1.82,1.76,3.41Z"/>
  </g>
</svg>